# xmcd
# 
# Track frame offsets:
#     150
#     14125
#     33125
#     49150
#     63225
#     78047
#     99975
#     123725
#     143550
#     161250
#     178840
#     196887
#     214275
#     228725
# 
# Disc length: 3371
# 
# Revision: 2
# Processed by: cddbd v1.5.2PL0 Copyright (c) Steve Scherf et al.
# Submitted via: fre:ac v1.0.31
# 
DISCID=bb0d290e
DTITLE=Pata Negra - Blues de la Frontera
DYEAR=0
DGENRE=
TTITLE0=Bodas de Sangre
TTITLE1=Blues de la Frontera
TTITLE2=Yo me quedo en Sevilla
TTITLE3=Camarón
TTITLE4=Calle Betis
TTITLE5=Lindo Gatito
TTITLE6=Lunático
TTITLE7=Tengo que volar
TTITLE8=Anónimo Jerezano
TTITLE9=Genoveva
TTITLE10=Romance de Pago
TTITLE11=Tu madre tuvo la culpa
TTITLE12=Todo lo que me gusta es ilegal
TTITLE13=Bulerías de Juan el Camas
EXTD=
EXTT0=
EXTT1=
EXTT2=
EXTT3=
EXTT4=
EXTT5=
EXTT6=
EXTT7=
EXTT8=
EXTT9=
EXTT10=
EXTT11=
EXTT12=
EXTT13=
PLAYORDER=
